<svg width="668" height="524" viewBox="0 0 668 524" fill="none" xmlns="http://www.w3.org/2000/svg">
<mask id="path-1-outside-1_201_9" maskUnits="userSpaceOnUse" x="137" y="319" width="484" height="100" fill="black">
<rect fill="white" x="137" y="319" width="484" height="100"/>
<path d="M170.159 417C159.592 417 151.735 414.705 146.587 410.114C141.529 405.433 139 398.322 139 388.781V350.705C139 341.163 141.529 334.097 146.587 329.506C151.735 324.826 159.592 322.485 170.159 322.485H202.808V330.316H170.159C162.843 330.316 157.425 331.982 153.902 335.312C150.47 338.643 148.754 343.774 148.754 350.705V365.827H195.899V373.658H148.754V388.781C148.754 395.712 150.47 400.842 153.902 404.173C157.425 407.504 162.843 409.169 170.159 409.169H203.621V417H170.159Z"/>
<path d="M249.813 417C239.426 417 231.704 414.705 226.647 410.114C221.679 405.433 219.195 398.322 219.195 388.781V322.485H228.95V388.781C228.95 395.712 230.62 400.842 233.962 404.173C237.394 407.504 242.678 409.169 249.813 409.169H280.294V417H249.813Z"/>
<path d="M294.474 350.705C294.474 341.163 297.003 334.097 302.06 329.506C307.208 324.826 315.066 322.485 325.633 322.485H358.282V330.316H325.633C318.317 330.316 312.898 331.982 309.376 335.312C305.944 338.643 304.228 343.774 304.228 350.705V368.527H351.373V376.359H304.228V417H294.474V350.705Z"/>
<path d="M419.497 386.62H376.688L367.34 417H357.586L382.106 338.013C384.093 331.622 386.216 327.211 388.474 324.781C390.822 322.26 394.028 321 398.092 321C402.157 321 405.363 322.26 407.711 324.781C410.059 327.211 412.227 331.622 414.214 338.013L438.735 417H428.845L419.497 386.62ZM417.194 379.059L404.595 338.148C403.602 335.087 402.653 332.972 401.75 331.802C400.847 330.631 399.628 330.046 398.092 330.046C396.647 330.046 395.473 330.631 394.57 331.802C393.667 332.972 392.719 335.087 391.725 338.148L379.126 379.059H417.194Z"/>
<path d="M526.953 417H516.521L510.019 392.696C508.754 388.015 507.309 384.37 505.683 381.759C504.058 379.149 501.8 377.259 498.91 376.089C496.11 374.828 492.271 374.198 487.394 374.198H465.448V417H455.693V322.485H496.336C505.187 322.485 511.915 324.691 516.521 329.101C521.218 333.512 523.566 339.723 523.566 347.734C523.566 354.485 521.94 359.886 518.689 363.937C515.528 367.897 511.012 370.373 505.141 371.363C509.115 372.803 512.186 375.188 514.354 378.519C516.612 381.85 518.599 386.575 520.315 392.696L526.953 417ZM495.252 366.367C501.122 366.367 505.683 364.792 508.935 361.641C512.186 358.491 513.812 354.08 513.812 348.409C513.812 342.648 512.186 338.193 508.935 335.042C505.683 331.892 501.122 330.316 495.252 330.316H465.448V366.367H495.252Z"/>
<path d="M598.763 386.62H555.953L546.605 417H536.851L561.372 338.013C563.359 331.622 565.481 327.211 567.739 324.781C570.087 322.26 573.293 321 577.358 321C581.422 321 584.628 322.26 586.976 324.781C589.325 327.211 591.492 331.622 593.479 338.013L618 417H608.11L598.763 386.62ZM596.46 379.059L583.86 338.148C582.867 335.087 581.919 332.972 581.016 331.802C580.112 330.631 578.893 330.046 577.358 330.046C575.913 330.046 574.739 330.631 573.835 331.802C572.932 332.972 571.984 335.087 570.99 338.148L558.391 379.059H596.46Z"/>
</mask>
<path d="M170.159 417C159.592 417 151.735 414.705 146.587 410.114C141.529 405.433 139 398.322 139 388.781V350.705C139 341.163 141.529 334.097 146.587 329.506C151.735 324.826 159.592 322.485 170.159 322.485H202.808V330.316H170.159C162.843 330.316 157.425 331.982 153.902 335.312C150.47 338.643 148.754 343.774 148.754 350.705V365.827H195.899V373.658H148.754V388.781C148.754 395.712 150.47 400.842 153.902 404.173C157.425 407.504 162.843 409.169 170.159 409.169H203.621V417H170.159Z" fill="black"/>
<path d="M249.813 417C239.426 417 231.704 414.705 226.647 410.114C221.679 405.433 219.195 398.322 219.195 388.781V322.485H228.95V388.781C228.95 395.712 230.62 400.842 233.962 404.173C237.394 407.504 242.678 409.169 249.813 409.169H280.294V417H249.813Z" fill="black"/>
<path d="M294.474 350.705C294.474 341.163 297.003 334.097 302.06 329.506C307.208 324.826 315.066 322.485 325.633 322.485H358.282V330.316H325.633C318.317 330.316 312.898 331.982 309.376 335.312C305.944 338.643 304.228 343.774 304.228 350.705V368.527H351.373V376.359H304.228V417H294.474V350.705Z" fill="black"/>
<path d="M419.497 386.62H376.688L367.34 417H357.586L382.106 338.013C384.093 331.622 386.216 327.211 388.474 324.781C390.822 322.26 394.028 321 398.092 321C402.157 321 405.363 322.26 407.711 324.781C410.059 327.211 412.227 331.622 414.214 338.013L438.735 417H428.845L419.497 386.62ZM417.194 379.059L404.595 338.148C403.602 335.087 402.653 332.972 401.75 331.802C400.847 330.631 399.628 330.046 398.092 330.046C396.647 330.046 395.473 330.631 394.57 331.802C393.667 332.972 392.719 335.087 391.725 338.148L379.126 379.059H417.194Z" fill="black"/>
<path d="M526.953 417H516.521L510.019 392.696C508.754 388.015 507.309 384.37 505.683 381.759C504.058 379.149 501.8 377.259 498.91 376.089C496.11 374.828 492.271 374.198 487.394 374.198H465.448V417H455.693V322.485H496.336C505.187 322.485 511.915 324.691 516.521 329.101C521.218 333.512 523.566 339.723 523.566 347.734C523.566 354.485 521.94 359.886 518.689 363.937C515.528 367.897 511.012 370.373 505.141 371.363C509.115 372.803 512.186 375.188 514.354 378.519C516.612 381.85 518.599 386.575 520.315 392.696L526.953 417ZM495.252 366.367C501.122 366.367 505.683 364.792 508.935 361.641C512.186 358.491 513.812 354.08 513.812 348.409C513.812 342.648 512.186 338.193 508.935 335.042C505.683 331.892 501.122 330.316 495.252 330.316H465.448V366.367H495.252Z" fill="black"/>
<path d="M598.763 386.62H555.953L546.605 417H536.851L561.372 338.013C563.359 331.622 565.481 327.211 567.739 324.781C570.087 322.26 573.293 321 577.358 321C581.422 321 584.628 322.26 586.976 324.781C589.325 327.211 591.492 331.622 593.479 338.013L618 417H608.11L598.763 386.62ZM596.46 379.059L583.86 338.148C582.867 335.087 581.919 332.972 581.016 331.802C580.112 330.631 578.893 330.046 577.358 330.046C575.913 330.046 574.739 330.631 573.835 331.802C572.932 332.972 571.984 335.087 570.99 338.148L558.391 379.059H596.46Z" fill="black"/>
<path d="M170.159 417C159.592 417 151.735 414.705 146.587 410.114C141.529 405.433 139 398.322 139 388.781V350.705C139 341.163 141.529 334.097 146.587 329.506C151.735 324.826 159.592 322.485 170.159 322.485H202.808V330.316H170.159C162.843 330.316 157.425 331.982 153.902 335.312C150.47 338.643 148.754 343.774 148.754 350.705V365.827H195.899V373.658H148.754V388.781C148.754 395.712 150.47 400.842 153.902 404.173C157.425 407.504 162.843 409.169 170.159 409.169H203.621V417H170.159Z" stroke="black" stroke-width="3" mask="url(#path-1-outside-1_201_9)"/>
<path d="M249.813 417C239.426 417 231.704 414.705 226.647 410.114C221.679 405.433 219.195 398.322 219.195 388.781V322.485H228.95V388.781C228.95 395.712 230.62 400.842 233.962 404.173C237.394 407.504 242.678 409.169 249.813 409.169H280.294V417H249.813Z" stroke="black" stroke-width="3" mask="url(#path-1-outside-1_201_9)"/>
<path d="M294.474 350.705C294.474 341.163 297.003 334.097 302.06 329.506C307.208 324.826 315.066 322.485 325.633 322.485H358.282V330.316H325.633C318.317 330.316 312.898 331.982 309.376 335.312C305.944 338.643 304.228 343.774 304.228 350.705V368.527H351.373V376.359H304.228V417H294.474V350.705Z" stroke="black" stroke-width="3" mask="url(#path-1-outside-1_201_9)"/>
<path d="M419.497 386.62H376.688L367.34 417H357.586L382.106 338.013C384.093 331.622 386.216 327.211 388.474 324.781C390.822 322.26 394.028 321 398.092 321C402.157 321 405.363 322.26 407.711 324.781C410.059 327.211 412.227 331.622 414.214 338.013L438.735 417H428.845L419.497 386.62ZM417.194 379.059L404.595 338.148C403.602 335.087 402.653 332.972 401.75 331.802C400.847 330.631 399.628 330.046 398.092 330.046C396.647 330.046 395.473 330.631 394.57 331.802C393.667 332.972 392.719 335.087 391.725 338.148L379.126 379.059H417.194Z" stroke="black" stroke-width="3" mask="url(#path-1-outside-1_201_9)"/>
<path d="M526.953 417H516.521L510.019 392.696C508.754 388.015 507.309 384.37 505.683 381.759C504.058 379.149 501.8 377.259 498.91 376.089C496.11 374.828 492.271 374.198 487.394 374.198H465.448V417H455.693V322.485H496.336C505.187 322.485 511.915 324.691 516.521 329.101C521.218 333.512 523.566 339.723 523.566 347.734C523.566 354.485 521.94 359.886 518.689 363.937C515.528 367.897 511.012 370.373 505.141 371.363C509.115 372.803 512.186 375.188 514.354 378.519C516.612 381.85 518.599 386.575 520.315 392.696L526.953 417ZM495.252 366.367C501.122 366.367 505.683 364.792 508.935 361.641C512.186 358.491 513.812 354.08 513.812 348.409C513.812 342.648 512.186 338.193 508.935 335.042C505.683 331.892 501.122 330.316 495.252 330.316H465.448V366.367H495.252Z" stroke="black" stroke-width="3" mask="url(#path-1-outside-1_201_9)"/>
<path d="M598.763 386.62H555.953L546.605 417H536.851L561.372 338.013C563.359 331.622 565.481 327.211 567.739 324.781C570.087 322.26 573.293 321 577.358 321C581.422 321 584.628 322.26 586.976 324.781C589.325 327.211 591.492 331.622 593.479 338.013L618 417H608.11L598.763 386.62ZM596.46 379.059L583.86 338.148C582.867 335.087 581.919 332.972 581.016 331.802C580.112 330.631 578.893 330.046 577.358 330.046C575.913 330.046 574.739 330.631 573.835 331.802C572.932 332.972 571.984 335.087 570.99 338.148L558.391 379.059H596.46Z" stroke="black" stroke-width="3" mask="url(#path-1-outside-1_201_9)"/>
<path d="M58.0936 410.726L58.0935 410.726L58.1016 410.733C64.7808 416.783 74.4135 419.75 86.8793 419.75C94.2504 419.75 100.7 418.746 106.213 416.718L106.22 416.715C111.816 414.598 116.135 411.633 119.124 407.792C122.212 403.94 123.75 399.385 123.75 394.161V383.981C123.75 377.389 122.049 372.309 118.517 368.885C114.989 365.465 109.762 363.821 102.978 363.821H84.7148H83.9648V364.571V372.443V373.193H84.7148H100.949C104.875 373.193 107.769 374.241 109.752 376.23L109.758 376.236L109.764 376.241C111.735 378.137 112.78 380.988 112.78 384.931V393.618C112.78 398.684 110.535 402.711 105.946 405.752C101.33 408.81 95.043 410.377 87.0146 410.377C77.8362 410.377 71.0154 408.187 66.4234 403.929C61.8413 399.591 59.4904 393.122 59.4904 384.388V355.476C59.4904 346.828 61.7983 340.451 66.2904 336.204L66.2907 336.204C70.8818 331.858 77.7452 329.623 87.0146 329.623C98.473 329.623 107.218 333.312 113.362 340.621L113.836 341.185L114.408 340.721L121.443 335.02L122.034 334.541L121.546 333.957C113.879 324.781 102.364 320.25 87.1499 320.25C74.5071 320.25 64.7825 323.215 58.1016 329.267C51.4962 335.241 48.25 344.023 48.25 355.476V384.388C48.25 395.754 51.498 404.574 58.0936 410.726Z" fill="black" stroke="black" stroke-width="1.5"/>
<path fill-rule="evenodd" clip-rule="evenodd" d="M437.28 92.5566C388.374 92.4931 332.488 92.4206 290.258 133.162C269.109 153.565 257.766 188.619 251.973 220.588C249.133 236.258 247.731 250.573 247.041 260.973C246.913 262.914 246.809 264.715 246.725 266.361C248.696 266.372 250.659 266.384 252.615 266.396C271.193 266.515 289.087 266.628 306.203 265.474C328.51 263.968 348.251 260.351 364.711 252.389C380.861 244.576 394.254 232.394 403.795 212.796C412.609 194.693 418.351 169.802 419.309 135.445C413.363 135.162 405.217 135.041 395.981 135.628C376.521 136.864 353.574 141.166 335.93 152.487C318.844 163.449 308.181 181.415 301.785 199.899C295.403 218.347 293.706 236.098 293.706 244.747H271.326C271.326 233.941 273.332 213.642 280.651 192.488C287.957 171.37 300.994 148.183 323.902 133.485C346.252 119.146 373.667 114.469 394.572 113.141C405.175 112.467 414.45 112.636 421.091 112.974C424.418 113.143 427.1 113.355 428.975 113.528C429.913 113.615 430.651 113.692 431.168 113.749C431.427 113.777 431.631 113.801 431.777 113.818L431.952 113.84L432.007 113.846L432.034 113.85C432.037 113.85 432.04 113.85 430.641 125.028L432.04 113.85L441.831 115.092V125.028C441.831 166.863 435.589 198.684 423.89 222.713C412.052 247.029 394.902 262.781 374.403 272.698C354.214 282.464 331.199 286.369 307.699 287.955C289.684 289.17 270.652 289.048 251.9 288.927C246.293 288.891 240.712 288.855 235.19 288.855H224.04L224 277.629L235.19 277.589C224 277.629 224 277.626 224 277.623L224 277.589L224 277.511L224.001 277.24C224.001 277.009 224.003 276.679 224.008 276.254C224.018 275.404 224.038 274.175 224.081 272.608C224.168 269.476 224.346 264.988 224.712 259.472C225.442 248.459 226.927 233.262 229.956 216.544C235.901 183.738 248.22 142.512 274.774 116.894C323.702 69.6897 388.147 69.8772 435.612 70.0153C438.124 70.0226 440.588 70.0298 443 70.0298V92.5616C441.105 92.5616 439.198 92.5591 437.28 92.5566Z" fill="black"/>
<path d="M383.688 211.438C383.688 217.737 378.581 222.844 372.281 222.844C365.982 222.844 360.875 217.737 360.875 211.438C360.875 205.138 365.982 200.031 372.281 200.031C378.581 200.031 383.688 205.138 383.688 211.438Z" fill="black"/>
<path fill-rule="evenodd" clip-rule="evenodd" d="M356.518 189.437C346.972 195.641 338.149 208.766 338.149 241.094H315.25C315.25 205.054 325.237 182.753 343.904 170.622C361.326 159.301 383.697 158.969 401.938 158.969V181.513C382.559 181.513 367.311 182.424 356.518 189.437Z" fill="black"/>
</svg>
